<?xml version="1.0" encoding="UTF-8" standalone="no"?>
<svg
   xmlns:dc="http://purl.org/dc/elements/1.1/"
   xmlns:cc="http://creativecommons.org/ns#"
   xmlns:rdf="http://www.w3.org/1999/02/22-rdf-syntax-ns#"
   xmlns:svg="http://www.w3.org/2000/svg"
   xmlns="http://www.w3.org/2000/svg"
   xmlns:sodipodi="http://sodipodi.sourceforge.net/DTD/sodipodi-0.dtd"
   xmlns:inkscape="http://www.inkscape.org/namespaces/inkscape"
   sodipodi:docname="Title.svg"
   width="210mm"
   height="297mm"
   viewBox="0 0 210 297"
   version="1.1"
   id="svg8"
   inkscape:version="1.0.2 (e86c870879, 2021-01-15, custom)">
  <defs
     id="defs2">
    <rect
       x="47.297458"
       y="68.031763"
       width="119.99954"
       height="29.947637"
       id="rect2158" />
  </defs>
  <sodipodi:namedview
     id="base"
     pagecolor="#ffffff"
     bordercolor="#666666"
     borderopacity="1.0"
     inkscape:pageopacity="0.0"
     inkscape:pageshadow="2"
     inkscape:zoom="1.3028372"
     inkscape:cx="353.6869"
     inkscape:cy="270.21674"
     inkscape:document-units="mm"
     inkscape:current-layer="layer1"
     inkscape:document-rotation="0"
     showgrid="false"
     inkscape:window-width="1886"
     inkscape:window-height="996"
     inkscape:window-x="15"
     inkscape:window-y="40"
     inkscape:window-maximized="0" />
  <metadata
     id="metadata5">
    <rdf:RDF>
      <cc:Work
         rdf:about="">
        <dc:format>image/svg+xml</dc:format>
        <dc:type
           rdf:resource="http://purl.org/dc/dcmitype/StillImage" />
        <dc:title />
      </cc:Work>
    </rdf:RDF>
  </metadata>
  <g
     inkscape:groupmode="layer"
     id="layer4"
     inkscape:label="Layer 2" />
  <g
     inkscape:label="Layer 1"
     inkscape:groupmode="layer"
     id="layer1"
     style="display:inline">
    <text
       xml:space="preserve"
       id="text2156"
       style="font-style:normal;font-weight:normal;font-size:10.5833px;line-height:1.25;font-family:sans-serif;white-space:pre;shape-inside:url(#rect2158);fill:#000000;fill-opacity:1;stroke:none;" />
    <g
       id="g938"
       inkscape:export-xdpi="96"
       inkscape:export-ydpi="96">
      <rect
         style="fill:#ececec;fill-opacity:1;stroke:none;stroke-width:0.799999"
         id="rect2330"
         width="120"
         height="29.999998"
         x="49.367657"
         y="66.456619" />
      <g
         id="g2246"
         inkscape:export-xdpi="96"
         inkscape:export-ydpi="96"
         transform="translate(2.0702007,-1.5751407)">
        <g
           inkscape:label="GridCartesian:X6:Y6"
           transform="translate(47.297458,68.031763)"
           id="g1849"
           style="fill:none">
          <g
             inkscape:label="MajorXGridlines"
             id="g1795"
             style="fill:none">
            <path
               style="fill:none;stroke:#000000;stroke-width:0.132292"
               d="M 20,0 V 30"
               inkscape:label="MajorXDiv1"
               id="path1785" />
            <path
               style="fill:none;stroke:#000000;stroke-width:0.132292"
               d="M 40,0 V 30"
               inkscape:label="MajorXDiv2"
               id="path1787" />
            <path
               style="fill:none;stroke:#000000;stroke-width:0.132292"
               d="M 60,0 V 30"
               inkscape:label="MajorXDiv3"
               id="path1789" />
            <path
               style="fill:none;stroke:#000000;stroke-width:0.132292"
               d="M 80,0 V 30"
               inkscape:label="MajorXDiv4"
               id="path1791" />
            <path
               style="fill:none;stroke:#000000;stroke-width:0.132292"
               d="M 100,0 V 30"
               inkscape:label="MajorXDiv5"
               id="path1793" />
          </g>
          <g
             inkscape:label="MajorYGridlines"
             id="g1807"
             style="fill:none">
            <path
               style="fill:none;stroke:#000000;stroke-width:0.264583"
               d="M 0,5 H 120"
               inkscape:label="MajorYDiv1"
               id="path1797" />
            <path
               style="fill:none;stroke:#000000;stroke-width:0.264583"
               d="M 0,10 H 120"
               inkscape:label="MajorYDiv2"
               id="path1799" />
            <path
               style="fill:none;stroke:#000000;stroke-width:0.264583"
               d="M 0,15 H 120"
               inkscape:label="MajorYDiv3"
               id="path1801" />
            <path
               style="fill:none;stroke:#000000;stroke-width:0.264583"
               d="M 0,20 H 120"
               inkscape:label="MajorYDiv4"
               id="path1803" />
            <path
               style="fill:none;stroke:#000000;stroke-width:0.264583"
               d="M 0,25 H 120"
               inkscape:label="MajorYDiv5"
               id="path1805" />
          </g>
          <g
             inkscape:label="MinorXGridlines"
             id="g1845"
             style="fill:none">
            <path
               style="fill:none;stroke:#000000;stroke-width:0.132292"
               d="M 5,0 V 30"
               inkscape:label="MinorXDiv0:1"
               id="path1809" />
            <path
               style="fill:none;stroke:#000000;stroke-width:0.132292"
               d="M 10,0 V 30"
               inkscape:label="MinorXDiv0:2"
               id="path1811" />
            <path
               style="fill:none;stroke:#000000;stroke-width:0.132292"
               d="M 15,0 V 30"
               inkscape:label="MinorXDiv0:3"
               id="path1813" />
            <path
               style="fill:none;stroke:#000000;stroke-width:0.132292"
               d="M 25,0 V 30"
               inkscape:label="MinorXDiv1:1"
               id="path1815" />
            <path
               style="fill:none;stroke:#000000;stroke-width:0.132292"
               d="M 30,0 V 30"
               inkscape:label="MinorXDiv1:2"
               id="path1817" />
            <path
               style="fill:none;stroke:#000000;stroke-width:0.132292"
               d="M 35,0 V 30"
               inkscape:label="MinorXDiv1:3"
               id="path1819" />
            <path
               style="fill:none;stroke:#000000;stroke-width:0.132292"
               d="M 45,0 V 30"
               inkscape:label="MinorXDiv2:1"
               id="path1821" />
            <path
               style="fill:none;stroke:#000000;stroke-width:0.132292"
               d="M 50,0 V 30"
               inkscape:label="MinorXDiv2:2"
               id="path1823" />
            <path
               style="fill:none;stroke:#000000;stroke-width:0.132292"
               d="M 55,0 V 30"
               inkscape:label="MinorXDiv2:3"
               id="path1825" />
            <path
               style="fill:none;stroke:#000000;stroke-width:0.132292"
               d="M 65,0 V 30"
               inkscape:label="MinorXDiv3:1"
               id="path1827" />
            <path
               style="fill:none;stroke:#000000;stroke-width:0.132292"
               d="M 70,0 V 30"
               inkscape:label="MinorXDiv3:2"
               id="path1829" />
            <path
               style="fill:none;stroke:#000000;stroke-width:0.132292"
               d="M 75,0 V 30"
               inkscape:label="MinorXDiv3:3"
               id="path1831" />
            <path
               style="fill:none;stroke:#000000;stroke-width:0.132292"
               d="M 85,0 V 30"
               inkscape:label="MinorXDiv4:1"
               id="path1833" />
            <path
               style="fill:none;stroke:#000000;stroke-width:0.132292"
               d="M 90,0 V 30"
               inkscape:label="MinorXDiv4:2"
               id="path1835" />
            <path
               style="fill:none;stroke:#000000;stroke-width:0.132292"
               d="M 95,0 V 30"
               inkscape:label="MinorXDiv4:3"
               id="path1837" />
            <path
               style="fill:none;stroke:#000000;stroke-width:0.132292"
               d="M 105,0 V 30"
               inkscape:label="MinorXDiv5:1"
               id="path1839" />
            <path
               style="fill:none;stroke:#000000;stroke-width:0.132292"
               d="M 110,0 V 30"
               inkscape:label="MinorXDiv5:2"
               id="path1841" />
            <path
               style="fill:none;stroke:#000000;stroke-width:0.132292"
               d="M 115,0 V 30"
               inkscape:label="MinorXDiv5:3"
               id="path1843" />
          </g>
          <rect
             x="0"
             y="0"
             width="120"
             height="30"
             style="fill:none;stroke:#000000;stroke-width:0.264583"
             inkscape:label="Border"
             id="rect1847" />
        </g>
        <path
           style="fill:#0000ff;fill-opacity:0.342731;stroke:#ff0000;stroke-width:0.799999"
           d="m 47.2975,97.9794 c 0.404,-0.0043 0.808,-0.0091 1.2121,-0.0145 0.404,-0.0054 0.8081,-0.0114 1.2121,-0.0182 0.404,-0.0067 0.8081,-0.0142 1.2121,-0.0225 0.4041,-0.0083 0.8081,-0.0176 1.2121,-0.0278 0.4041,-0.0103 0.8081,-0.0216 1.2122,-0.0342 0.404,-0.0125 0.808,-0.0264 1.2121,-0.0417 0.404,-0.0153 0.8081,-0.0321 1.2121,-0.0506 0.404,-0.0186 0.8081,-0.0389 1.2121,-0.0612 0.4041,-0.0224 0.8081,-0.0468 1.2121,-0.0735 0.4041,-0.0268 0.8081,-0.056 1.2122,-0.0878 0.404,-0.0319 0.808,-0.0666 1.2121,-0.1043 0.404,-0.0378 0.8081,-0.0787 1.2121,-0.1232 0.404,-0.0445 0.8081,-0.0926 1.2121,-0.1447 0.4041,-0.0521 0.8081,-0.1082 1.2122,-0.1689 0.404,-0.0606 0.808,-0.1258 1.2121,-0.196 0.404,-0.0703 0.8081,-0.1455 1.2121,-0.2264 0.404,-0.0808 0.8081,-0.1672 1.2121,-0.2597 0.4041,-0.0924 0.8081,-0.191 1.2121,-0.2962 0.4041,-0.1052 0.8081,-0.217 1.2122,-0.3359 0.404,-0.1189 0.808,-0.245 1.2121,-0.3786 0.404,-0.1337 0.8081,-0.2749 1.2121,-0.4241 0.404,-0.1493 0.8081,-0.3066 1.2121,-0.4722 0.4041,-0.1657 0.8081,-0.3397 1.2121,-0.5224 0.4041,-0.1827 0.8081,-0.3741 1.2122,-0.5743 0.404,-0.2002 0.808,-0.4092 1.2121,-0.6272 0.404,-0.2179 0.8081,-0.4448 1.2121,-0.6805 0.404,-0.2358 0.8081,-0.4803 1.2121,-0.7335 0.4041,-0.2532 0.8081,-0.515 1.2121,-0.7851 0.4041,-0.2701 0.8081,-0.5484 1.2122,-0.8344 0.404,-0.286 0.8081,-0.5797 1.2121,-0.8804 0.404,-0.3007 0.8081,-0.6083 1.2121,-0.922 0.4041,-0.3136 0.8081,-0.6334 1.2121,-0.958 0.4041,-0.3247 0.8081,-0.6543 1.2122,-0.9876 0.404,-0.3332 0.808,-0.6701 1.2121,-1.0093 0.404,-0.3391 0.8081,-0.6805 1.2121,-1.0224 0.404,-0.342 0.8081,-0.6846 1.2121,-1.026 0.4041,-0.3415 0.8081,-0.6819 1.2121,-1.0193 0.4041,-0.3374 0.8081,-0.6718 1.2122,-1.0014 0.404,-0.3296 0.808,-0.6544 1.2121,-0.9723 0.404,-0.318 0.8081,-0.6291 1.2121,-0.9315 0.404,-0.3025 0.8081,-0.5961 1.2121,-0.8792 0.4041,-0.283 0.8081,-0.5554 1.2121,-0.8154 0.4041,-0.2599 0.8081,-0.5073 1.2122,-0.7407 0.404,-0.2333 0.8083,-0.4524 1.2123,-0.6558 0.404,-0.2034 0.808,-0.3911 1.212,-0.5618 0.404,-0.1706 0.808,-0.3242 1.212,-0.4596 0.404,-0.1354 0.808,-0.2526 1.212,-0.3508 0.404,-0.0982 0.808,-0.1773 1.212,-0.2368 0.404,-0.0595 0.808,-0.0994 1.212,-0.1193 0.404,-0.02 0.808,-0.0199 1.213,0 0.404,0.0199 0.808,0.0598 1.212,0.1193 0.404,0.0595 0.808,0.1386 1.212,0.2368 0.404,0.0981 0.808,0.2154 1.212,0.3508 0.404,0.1354 0.808,0.289 1.212,0.4596 0.404,0.1707 0.808,0.3584 1.212,0.5618 0.404,0.2034 0.808,0.4226 1.212,0.6558 0.404,0.2333 0.808,0.4808 1.212,0.7407 0.404,0.26 0.808,0.5324 1.212,0.8154 0.405,0.283 0.809,0.5767 1.213,0.8792 0.404,0.3024 0.808,0.6135 1.212,0.9315 0.404,0.3179 0.808,0.6427 1.212,0.9723 0.404,0.3296 0.808,0.664 1.212,1.0014 0.404,0.3374 0.808,0.6778 1.212,1.0193 0.404,0.3414 0.808,0.684 1.212,1.026 0.404,0.3419 0.808,0.6833 1.212,1.0224 0.404,0.3392 0.808,0.6761 1.212,1.0093 0.404,0.3333 0.809,0.6629 1.213,0.9876 0.404,0.3246 0.808,0.6443 1.212,0.958 0.404,0.3137 0.808,0.6213 1.212,0.922 0.404,0.3007 0.808,0.5944 1.212,0.8804 0.404,0.286 0.808,0.5643 1.212,0.8344 0.404,0.2701 0.808,0.5319 1.212,0.7851 0.404,0.2532 0.808,0.4977 1.212,0.7335 0.404,0.2357 0.808,0.4625 1.212,0.6805 0.404,0.218 0.809,0.427 1.213,0.6272 0.404,0.2003 0.808,0.3916 1.212,0.5743 0.404,0.1827 0.808,0.3567 1.212,0.5224 0.404,0.1656 0.808,0.3229 1.212,0.4722 0.404,0.1492 0.808,0.2904 1.212,0.4241 0.404,0.1336 0.808,0.2596 1.212,0.3786 0.404,0.1189 0.808,0.2307 1.212,0.3359 0.404,0.1052 0.808,0.2037 1.212,0.2962 0.404,0.0925 0.808,0.1789 1.213,0.2597 0.404,0.0809 0.808,0.1561 1.212,0.2264 0.404,0.0702 0.808,0.1354 1.212,0.196 0.404,0.0607 0.808,0.1168 1.212,0.1689 0.404,0.0521 0.808,0.1002 1.212,0.1447 0.404,0.0445 0.808,0.0854 1.212,0.1232 0.404,0.0377 0.808,0.0724 1.212,0.1043 0.404,0.0318 0.808,0.061 1.212,0.0878 0.404,0.0267 0.808,0.0511 1.212,0.0735 0.405,0.0223 0.809,0.0426 1.213,0.0612 0.404,0.0185 0.808,0.0353 1.212,0.0506 0.404,0.0153 0.808,0.0292 1.212,0.0417 0.404,0.0126 0.808,0.0239 1.212,0.0342 0.404,0.0103 0.808,0.0195 1.212,0.0278 0.404,0.0083 0.808,0.0158 1.212,0.0225 0.404,0.0068 0.808,0.0128 1.212,0.0182 0.404,0.0054 0.808,0.0102 1.212,0.0145"
           title="1/(sqrt(2*pi))*exp(-(pow(x,2))/(2))"
           id="path2097" />
        <text
           xml:space="preserve"
           style="font-style:normal;font-weight:normal;font-size:14.8167px;line-height:1.25;font-family:sans-serif;fill:#000000;fill-opacity:1;stroke:none;stroke-width:0.264583"
           x="57.399231"
           y="87.779114"
           id="text2170"><tspan
             id="tspan2168"
             x="57.399231"
             y="87.779114"
             style="font-style:normal;font-variant:normal;font-weight:normal;font-stretch:normal;font-size:14.8167px;font-family:'Times New Roman';-inkscape-font-specification:'Times New Roman, ';stroke-width:0.264583"
             sodipodi:role="line">STAT 380 Notes</tspan></text>
        <rect
           style="fill:none;fill-opacity:0.342731;stroke:none;stroke-width:0.799999"
           id="rect2286"
           width="120"
           height="30.000002"
           x="47.297455"
           y="68.031761" />
      </g>
    </g>
  </g>
</svg>
